<svg xmlns="http://www.w3.org/2000/svg" version="1.1" xmlns:xlink="http://www.w3.org/1999/xlink" xmlns:svgjs="http://svgjs.dev/svgjs" width="1000" height="1000" viewBox="0 0 1000 1000"><rect width="1000" height="1000" fill="#000000"></rect><g transform="matrix(0.7,0,0,0.7,149.57575981839068,294.23985896433794)"><svg viewBox="0 0 396 233" data-background-color="#ffffff" preserveAspectRatio="xMidYMid meet" height="588" width="1000" xmlns="http://www.w3.org/2000/svg" xmlns:xlink="http://www.w3.org/1999/xlink"><defs></defs><g id="tight-bounds" transform="matrix(1,0,0,1,0.23999879078024833,-0.022563505079546076)"><svg viewBox="0 0 395.52 233.0451270101591" height="233.0451270101591" width="395.52"><g><svg viewBox="0 0 395.52 233.0451270101591" height="233.0451270101591" width="395.52"><g transform="matrix(1,0,0,1,0,194.860663606477)"><svg viewBox="0 0 395.52 38.18446340368208" height="38.18446340368208" width="395.52"><g><svg viewBox="0 0 395.52 38.18446340368208" height="38.18446340368208" width="395.52"><g><svg viewBox="0 0 395.52 38.18446340368208" height="38.18446340368208" width="395.52"><g transform="matrix(1,0,0,1,0,0)"><svg width="395.52" viewBox="2.440000057220459 -36.25 380.55999755859375 36.7400016784668" height="38.18446340368208" data-palette-color="#0f2615"><path d="M34.62-18.16L34.62-2.05Q31.08-0.76 27.82-0.13 24.56 0.49 21.24 0.49L21.24 0.49Q16.36 0.49 12.82-0.73 9.28-1.95 6.97-4.16 4.66-6.37 3.55-9.46 2.44-12.55 2.44-16.31L2.44-16.31Q2.44-19.63 3.25-22.4 4.05-25.17 5.49-27.39 6.93-29.61 8.92-31.27 10.91-32.93 13.26-34.05 15.6-35.16 18.23-35.71 20.85-36.25 23.56-36.25L23.56-36.25Q24.44-36.25 25.63-36.19 26.83-36.13 28.15-35.99 29.47-35.84 30.82-35.61 32.18-35.38 33.37-35.06L33.37-35.06 31.98-28.78 31.49-28.59Q30.44-29.1 29.36-29.46 28.27-29.81 27.25-30.02 26.22-30.22 25.27-30.32 24.32-30.42 23.54-30.42L23.54-30.42Q21.02-30.42 19.01-29.6 16.99-28.78 15.58-27.21 14.16-25.63 13.4-23.33 12.65-21.02 12.65-18.07L12.65-18.07Q12.65-15.26 13.34-12.93 14.04-10.6 15.32-8.91 16.6-7.23 18.43-6.29 20.26-5.35 22.56-5.35L22.56-5.35Q22.9-5.35 23.36-5.37 23.83-5.4 24.3-5.44 24.78-5.49 25.22-5.57 25.66-5.64 25.93-5.74L25.93-5.74 25.93-18.16 34.62-18.16ZM59.81-5.35L59.81-5.35Q61.91-5.35 63.5-6.37 65.09-7.4 66.15-9.11 67.21-10.82 67.75-13.02 68.28-15.23 68.28-17.63L68.28-17.63Q68.28-20.19 67.67-22.51 67.06-24.83 65.92-26.59 64.77-28.34 63.11-29.38 61.45-30.42 59.37-30.42L59.37-30.42Q57.27-30.42 55.7-29.39 54.12-28.37 53.06-26.66 52-24.95 51.46-22.73 50.93-20.51 50.93-18.14L50.93-18.14Q50.93-15.58 51.54-13.26 52.15-10.94 53.28-9.18 54.42-7.42 56.06-6.38 57.71-5.35 59.81-5.35ZM58.96 0.49L58.96 0.49Q55 0.49 51.66-0.68 48.31-1.86 45.88-4.11 43.45-6.37 42.09-9.66 40.72-12.94 40.72-17.16L40.72-17.16Q40.72-21.48 42.15-25 43.58-28.52 46.16-31.02 48.75-33.52 52.33-34.89 55.91-36.25 60.23-36.25L60.23-36.25Q64.18-36.25 67.53-35.08 70.87-33.91 73.3-31.67 75.73-29.42 77.1-26.14 78.46-22.85 78.46-18.63L78.46-18.63Q78.46-14.31 77.02-10.78 75.58-7.25 73.01-4.75 70.43-2.25 66.84-0.88 63.25 0.49 58.96 0.49ZM106.88 0L85.05 0 85.05-35.77 94.97-35.77 94.97-5.83 107.91-5.83 106.88 0ZM124.16 0L114.25 0 114.25-35.77 138.4-35.77 137.37-29.93 124.16-29.93 124.16-21.09 135.56-21.09 134.66-15.75 124.16-15.75 124.16 0ZM176.31-19.92L176.31-19.92Q177.67-19.58 179.08-18.88 180.48-18.19 181.62-17.11 182.75-16.04 183.47-14.59 184.19-13.13 184.19-11.25L184.19-11.25Q184.19-9.01 183.06-6.98 181.92-4.96 179.75-3.39 177.58-1.83 174.44-0.92 171.3 0 167.32 0L167.32 0 154.26 0 154.26-35.77 168.76-35.77Q172.16-35.77 174.76-35.19 177.36-34.62 179.11-33.58 180.87-32.54 181.76-31.1 182.65-29.66 182.65-27.95L182.65-27.95Q182.65-26.59 182.15-25.48 181.65-24.37 180.79-23.41 179.92-22.46 178.77-21.61 177.62-20.75 176.31-19.92ZM164.17-15.75L164.17-5.83 168.05-5.83Q169.45-5.83 170.54-6.25 171.64-6.67 172.41-7.39 173.18-8.11 173.58-9.05 173.99-9.99 173.99-11.04L173.99-11.04Q173.99-12.3 173.5-13.2 173.01-14.09 172.16-14.66 171.3-15.23 170.17-15.49 169.03-15.75 167.71-15.75L167.71-15.75 164.17-15.75ZM164.17-21.09L170.81-21.09Q171.25-21.39 171.64-21.84 172.03-22.29 172.33-22.88 172.62-23.46 172.79-24.16 172.96-24.85 172.96-25.63L172.96-25.63Q172.96-26.61 172.59-27.4 172.23-28.2 171.56-28.76 170.89-29.32 169.97-29.63 169.05-29.93 167.96-29.93L167.96-29.93 164.17-29.93 164.17-21.09ZM190.54-35.77L200.45-35.77 200.45-12.84Q200.45-10.96 200.89-9.55 201.33-8.13 202.12-7.2 202.91-6.27 204.03-5.81 205.14-5.35 206.45-5.35L206.45-5.35Q207.8-5.35 208.96-5.82 210.12-6.3 210.96-7.24 211.8-8.18 212.28-9.57 212.75-10.96 212.75-12.82L212.75-12.82 212.75-35.77 220.42-35.77 220.42-13.99Q220.42-10.77 219.43-8.11 218.44-5.44 216.5-3.54 214.56-1.64 211.68-0.57 208.8 0.49 204.99 0.49L204.99 0.49Q201.65 0.49 198.96-0.37 196.27-1.22 194.41-2.94 192.54-4.66 191.54-7.23 190.54-9.79 190.54-13.21L190.54-13.21 190.54-35.77ZM228.47 0L228.47-35.77 243.12-35.77Q247.83-35.77 251.46-34.61 255.09-33.45 257.55-31.29 260.02-29.13 261.29-26.05 262.56-22.97 262.56-19.14L262.56-19.14Q262.56-16.89 262.09-14.6 261.63-12.3 260.6-10.17 259.58-8.03 257.97-6.18 256.35-4.32 254.07-2.94 251.79-1.56 248.77-0.77 245.76 0.02 241.95 0.02L241.95 0.02 228.47 0ZM238.39-29.93L238.39-5.83 242.9-5.83Q245.34-5.83 247.13-6.77 248.91-7.71 250.07-9.39 251.23-11.06 251.79-13.37 252.35-15.67 252.35-18.38L252.35-18.38Q252.35-21.36 251.69-23.55 251.03-25.73 249.77-27.15 248.52-28.56 246.66-29.25 244.81-29.93 242.44-29.93L242.44-29.93 238.39-29.93ZM269.15 0L269.15-35.77 283.79-35.77Q288.51-35.77 292.13-34.61 295.76-33.45 298.22-31.29 300.69-29.13 301.96-26.05 303.23-22.97 303.23-19.14L303.23-19.14Q303.23-16.89 302.76-14.6 302.3-12.3 301.27-10.17 300.25-8.03 298.64-6.18 297.03-4.32 294.74-2.94 292.46-1.56 289.45-0.77 286.43 0.02 282.62 0.02L282.62 0.02 269.15 0ZM279.06-29.93L279.06-5.83 283.57-5.83Q286.02-5.83 287.8-6.77 289.58-7.71 290.74-9.39 291.9-11.06 292.46-13.37 293.02-15.67 293.02-18.38L293.02-18.38Q293.02-21.36 292.36-23.55 291.7-25.73 290.45-27.15 289.19-28.56 287.33-29.25 285.48-29.93 283.11-29.93L283.11-29.93 279.06-29.93ZM319.73-35.77L319.73 0 309.82 0 309.82-35.77 319.73-35.77ZM351.32 0L328.03 0 328.03-35.77 352.17-35.77 351.15-29.93 337.94-29.93 337.94-21.09 349.34-21.09 348.44-15.75 337.94-15.75 337.94-5.83 352.34-5.83 351.32 0ZM368.45-5.35L368.45-5.35Q369.43-5.35 370.39-5.54 371.36-5.74 372.1-6.2 372.85-6.67 373.31-7.4 373.78-8.13 373.78-9.2L373.78-9.2Q373.78-10.5 373.1-11.4 372.43-12.3 371.33-13 370.24-13.7 368.84-14.28 367.45-14.87 365.99-15.5 364.52-16.14 363.13-16.93 361.74-17.72 360.64-18.85 359.54-19.97 358.87-21.52 358.2-23.07 358.2-25.22L358.2-25.22Q358.2-27.73 359.18-29.79 360.15-31.84 361.96-33.26 363.77-34.69 366.35-35.47 368.94-36.25 372.14-36.25L372.14-36.25Q372.97-36.25 374.13-36.19 375.29-36.13 376.6-35.99 377.9-35.84 379.27-35.61 380.64-35.38 381.91-35.03L381.91-35.03 380.49-28.81 380.08-28.61Q379-29.1 377.9-29.44 376.8-29.79 375.77-30 374.73-30.22 373.81-30.32 372.9-30.42 372.19-30.42L372.19-30.42Q369.99-30.42 368.7-29.54 367.4-28.66 367.4-26.9L367.4-26.9Q367.4-25.63 368.08-24.76 368.75-23.88 369.85-23.19 370.94-22.51 372.35-21.95 373.75-21.39 375.2-20.74 376.66-20.09 378.06-19.3 379.46-18.51 380.56-17.37 381.66-16.24 382.33-14.66 383-13.09 383-10.91L383-10.91Q383-8.33 382.02-6.23 381.03-4.13 379.17-2.64 377.32-1.15 374.66-0.33 371.99 0.49 368.67 0.49L368.67 0.49Q367.48 0.49 366.07 0.37 364.67 0.24 363.14-0.02 361.62-0.29 360.06-0.73 358.49-1.17 356.98-1.83L356.98-1.83 358.37-8.08 358.88-8.33Q360.32-7.67 361.58-7.13 362.84-6.59 364-6.19 365.16-5.79 366.26-5.57 367.36-5.35 368.45-5.35Z" opacity="1" transform="matrix(1,0,0,1,0,0)" fill="#ffffff" class="undefined-text-0" data-fill-palette-color="primary" id="text-0"></path></svg></g></svg></g></svg></g></svg></g><g transform="matrix(1,0,0,1,109.34410357924914,0)"><svg viewBox="0 0 176.8317928415017 176.8317928415017" height="176.8317928415017" width="176.8317928415017"><g><svg></svg></g><g id="icon-0"><svg viewBox="0 0 176.8317928415017 176.8317928415017" height="176.8317928415017" width="176.8317928415017"><g><path d="M0 88.416c0-48.831 39.585-88.416 88.416-88.416 48.831 0 88.416 39.585 88.416 88.416 0 48.831-39.585 88.416-88.416 88.416-48.831 0-88.416-39.585-88.416-88.416zM88.416 173.388c46.929 0 84.972-38.043 84.972-84.972 0-46.929-38.043-84.972-84.972-84.972-46.929 0-84.972 38.043-84.972 84.972 0 46.929 38.043 84.972 84.972 84.972z" data-fill-palette-color="accent" fill="#ffffff" stroke="transparent"></path><ellipse rx="87.53173745654334" ry="87.53173745654334" cx="88.41589642075085" cy="88.41589642075085" fill="#ffffff" stroke="transparent" stroke-width="0" fill-opacity="1" data-fill-palette-color="accent"></ellipse></g><g transform="matrix(1,0,0,1,40.67748103635484,45.61525604005009)"><svg viewBox="0 0 95.47683076879203 85.60128076140153" height="85.60128076140153" width="95.47683076879203"><g><svg xmlns="http://www.w3.org/2000/svg" xmlns:xlink="http://www.w3.org/1999/xlink" version="1.1" x="0" y="0" viewBox="-346 266.4170227050781 99.91900634765625 89.583984375" enable-background="new -346 256 100 100" xml:space="preserve" width="95.47683076879203" height="85.60128076140153" class="icon-x-0" data-fill-palette-color="quaternary" id="x-0"><g fill="#0f2615" data-fill-palette-color="quaternary"><circle cx="-296.002" cy="273.726" r="7.3" fill="#0f2615" data-fill-palette-color="quaternary"></circle><circle cx="-268.652" cy="273.726" r="7.3" fill="#0f2615" data-fill-palette-color="quaternary"></circle><path d="M-341.76 292.038c0-1.976 0.4-3.782 1.118-5.342h-1.262c-2.261 0-4.096 1.833-4.096 4.096s1.835 4.099 4.096 4.099h0.144V292.038z" fill="#0f2615" data-fill-palette-color="quaternary"></path><circle cx="-323.432" cy="273.726" r="7.3" fill="#0f2615" data-fill-palette-color="quaternary"></circle></g><g fill="#0f2615" data-fill-palette-color="quaternary"><path d="M-332.508 351.904c0 2.26 1.835 4.096 4.098 4.096 2.265 0 4.099-1.836 4.099-4.096l0.004-34.378h1.824l-0.012 34.378c0 2.26 1.835 4.096 4.099 4.096 2.262 0 4.096-1.836 4.096-4.096l0.018-59.268h1.799v21.841c0 4.393 5.731 4.393 5.719 0V292.17c0-4.855-2.854-9.612-8.533-9.612l-16.383-0.006c-5.175 0-8.418 4.22-8.418 9.485v22.44c0 4.362 5.764 4.362 5.764 0v-21.841h1.835L-332.508 351.904z" fill="#0f2615" data-fill-palette-color="quaternary"></path><circle cx="-323.432" cy="273.726" r="7.3" fill="#0f2615" data-fill-palette-color="quaternary"></circle><path d="M-332.508 351.904c0 2.26 1.835 4.096 4.098 4.096 2.265 0 4.099-1.836 4.099-4.096l0.004-34.378h1.824l-0.012 34.378c0 2.26 1.835 4.096 4.099 4.096 2.262 0 4.096-1.836 4.096-4.096l0.018-59.268h1.799v21.841c0 4.393 5.731 4.393 5.719 0V292.17c0-4.855-2.854-9.612-8.533-9.612l-16.383-0.006c-5.175 0-8.418 4.22-8.418 9.485v22.44c0 4.362 5.764 4.362 5.764 0v-21.841h1.835L-332.508 351.904z" fill="#0f2615" data-fill-palette-color="quaternary"></path><path d="M-332.508 351.904c0 2.26 1.835 4.096 4.098 4.096 2.265 0 4.099-1.836 4.099-4.096l0.004-34.378h1.824l-0.012 34.378c0 2.26 1.835 4.096 4.099 4.096 2.262 0 4.096-1.836 4.096-4.096l0.018-59.268h1.799v21.841c0 4.393 5.731 4.393 5.719 0V292.17c0-4.855-2.854-9.612-8.533-9.612l-16.383-0.006c-5.175 0-8.418 4.22-8.418 9.485v22.44c0 4.362 5.764 4.362 5.764 0v-21.841h1.835L-332.508 351.904z" fill="#0f2615" data-fill-palette-color="quaternary"></path><path d="M-250.323 292.038c0-1.976-0.398-3.782-1.118-5.342h1.263c2.261 0 4.097 1.833 4.097 4.096s-1.836 4.099-4.097 4.099h-0.145V292.038z" fill="#0f2615" data-fill-palette-color="quaternary"></path><path d="M-287.832 282.553l-8.209 0.003-8.21-0.003c-1.576 0-2.971 0.395-4.152 1.089 2.182 2.175 3.302 5.362 3.302 8.529v0.466h0.032l-0.009 59.268c0 2.26 1.836 4.096 4.096 4.096 2.267 0 4.099-1.836 4.099-4.096l0.006-34.378h0.835 0.835l0.006 34.378c0 2.26 1.832 4.096 4.099 4.096 2.261 0 4.097-1.836 4.097-4.096l-0.01-59.268h0.033v-0.466c0-3.167 1.121-6.354 3.302-8.529C-284.86 282.948-286.256 282.553-287.832 282.553z" fill="#0f2615" data-fill-palette-color="quaternary"></path><path d="M-259.574 351.904c0 2.26-1.836 4.096-4.1 4.096s-4.099-1.836-4.099-4.096l-0.003-34.378h-1.824l0.012 34.378c0 2.26-1.836 4.096-4.099 4.096-2.264 0-4.097-1.836-4.097-4.096l-0.018-59.268h-1.8v21.841c0 4.393-5.731 4.393-5.72 0V292.17c0-4.855 2.854-9.612 8.535-9.612l16.381-0.006c5.177 0 8.42 4.22 8.42 9.485v22.44c0 4.362-5.764 4.362-5.764 0v-21.841h-1.836L-259.574 351.904z" fill="#0f2615" data-fill-palette-color="quaternary"></path><path d="M-259.574 351.904c0 2.26-1.836 4.096-4.1 4.096s-4.099-1.836-4.099-4.096l-0.003-34.378h-1.824l0.012 34.378c0 2.26-1.836 4.096-4.099 4.096-2.264 0-4.097-1.836-4.097-4.096l-0.018-59.268h-1.8v21.841c0 4.393-5.731 4.393-5.72 0V292.17c0-4.855 2.854-9.612 8.535-9.612l16.381-0.006c5.177 0 8.42 4.22 8.42 9.485v22.44c0 4.362-5.764 4.362-5.764 0v-21.841h-1.836L-259.574 351.904z" fill="#0f2615" data-fill-palette-color="quaternary"></path><path d="M-259.574 351.904c0 2.26-1.836 4.096-4.1 4.096s-4.099-1.836-4.099-4.096l-0.003-34.378h-1.824l0.012 34.378c0 2.26-1.836 4.096-4.099 4.096-2.264 0-4.097-1.836-4.097-4.096l-0.018-59.268h-1.8v21.841c0 4.393-5.731 4.393-5.72 0V292.17c0-4.855 2.854-9.612 8.535-9.612l16.381-0.006c5.177 0 8.42 4.22 8.42 9.485v22.44c0 4.362-5.764 4.362-5.764 0v-21.841h-1.836L-259.574 351.904z" fill="#0f2615" data-fill-palette-color="quaternary"></path></g></svg></g></svg></g></svg></g></svg></g><g></g></svg></g></svg><rect width="395.52" height="233.0451270101591" fill="none" stroke="none" visibility="hidden"></rect></g></svg></g></svg>