<svg xmlns="http://www.w3.org/2000/svg" version="1.1" xmlns:xlink="http://www.w3.org/1999/xlink" xmlns:svgjs="http://svgjs.dev/svgjs" width="1000" height="625" viewBox="0 0 1000 625"><g transform="matrix(1,0,0,1,0,0)"><svg viewBox="0 0 512 320" data-background-color="#0f2615" preserveAspectRatio="xMidYMid meet" height="625" width="1000" xmlns="http://www.w3.org/2000/svg" xmlns:xlink="http://www.w3.org/1999/xlink"><defs></defs><g id="tight-bounds" transform="matrix(1,0,0,1,0,0)"><svg viewBox="0 0 512 320" height="320" width="512"><g><svg></svg></g><g><svg viewBox="0 0 512 320" height="320" width="512"><g><path d="M96 160c0-88.366 71.634-160 160-160 88.366 0 160 71.634 160 160 0 88.366-71.634 160-160 160-88.366 0-160-71.634-160-160z" fill="#fffafe" data-fill-palette-color="tertiary"></path></g><g transform="matrix(1,0,0,1,153.6,108.88705759828142)"><svg viewBox="0 0 204.8 102.22588480343718" height="102.22588480343718" width="204.8"><g><svg viewBox="0 0 204.8 102.22588480343718" height="102.22588480343718" width="204.8"><g><svg viewBox="0 0 204.8 102.22588480343718" height="102.22588480343718" width="204.8"><g transform="matrix(1,0,0,1,0,63.17969790762622)"><svg viewBox="0 0 204.8 39.04618689581096" height="39.04618689581096" width="204.8"><g><svg viewBox="0 0 204.8 39.04618689581096" height="39.04618689581096" width="204.8"><g><svg viewBox="0 0 204.8 39.04618689581096" height="39.04618689581096" width="204.8"><g transform="matrix(1,0,0,1,0,0)"><svg width="204.8" viewBox="1.4500000476837158 -38.04999923706055 279.2699890136719 53.25" height="39.04618689581096" data-palette-color="#0f2615"><path d="M16.55 13.75L16.55 13.75Q13.75 13.75 11.78 12.03 9.8 10.3 9.8 6.75 9.8 3.2 13.2 0.1L13.2 0.1Q7.15-0.75 4.3-4.58 1.45-8.4 1.45-14.48 1.45-20.55 3.68-25.88 5.9-31.2 10.3-34.63 14.7-38.05 19.83-38.05 24.95-38.05 27.88-35.58 30.8-33.1 30.8-28.8 30.8-24.5 28.25-21.88 25.7-19.25 22.23-19.25 18.75-19.25 16.85-20.78 14.95-22.3 14.95-24.03 14.95-25.75 16.32-26.73 17.7-27.7 20.35-27.7L20.35-27.7Q19.7-27.05 19.7-25.98 19.7-24.9 20.35-24.1 21-23.3 22.33-23.3 23.65-23.3 24.83-24.7 26-26.1 26-28.53 26-30.95 24.75-32.3 23.5-33.65 20.95-33.65L20.95-33.65Q17.55-33.65 14.78-30.9 12-28.15 10.55-23.9 9.1-19.65 9.1-14.95L9.1-14.95Q9.1-10.9 10.85-7.8L10.85-7.8Q11.75-6.2 13.53-5.25 15.3-4.3 17.03-4.3 18.75-4.3 19.8-4.45L19.8-4.45 21.05-15.35 28.05-15.35 26.95-7.2Q32.35-10.05 34.05-13.4L34.05-13.4 36-10.65Q32.75-5.65 26.4-3.05L26.4-3.05 25.75 2.35Q25.35 6 24.3 8.45 23.25 10.9 21.83 11.98 20.4 13.05 19.2 13.4 18 13.75 16.55 13.75ZM14.25 6.6L14.25 6.6Q14.25 7.5 14.8 8.15 15.35 8.8 16.07 8.8 16.8 8.8 17.2 8.55 17.6 8.3 18.05 7.25 18.5 6.2 18.75 4.3L18.75 4.3 19.25 0.2Q14.25 3.3 14.25 6.6ZM46.25-24.05L46.25-24.05Q50.85-24.05 53.92-21.1 57-18.15 57-13.9L57-13.9Q57-7.45 53.22-3.58 49.45 0.3 44.1 0.3 38.75 0.3 35.62-2.75 32.5-5.8 32.5-10.3L32.5-10.3Q32.5-16.6 36.35-20.3L36.35-20.3Q40.25-24.05 46.25-24.05ZM45.27-20Q42.9-20 41.3-17.3 39.7-14.6 39.55-10.5L39.55-10.5Q39.55-7.6 40.72-5.7 41.9-3.8 44.3-3.8 46.7-3.8 48.32-6.45 49.95-9.1 49.95-12.5 49.95-15.9 48.8-17.9L48.8-17.9Q47.65-20 45.27-20ZM65.87 0.35Q62.8 0.35 61.05-1.38 59.3-3.1 59.3-6.1L59.3-6.1Q59.3-6.9 62-29.85L62-29.85Q62.7-35.75 65.75-37.3L65.75-37.3Q67.15-38.05 69.09-38.05L69.09-38.05Q75.7-38.05 75.7-31.95L75.7-31.95Q75.7-31.45 75.65-30.9L75.65-30.9Q75.15-24.2 67.25-17.25L67.25-17.25Q67-14.8 66.7-12.5L66.7-12.5Q66.09-7.35 66.09-6.8L66.09-6.8Q66.09-4.2 68.34-4.2L68.34-4.2Q70.8-4.2 72.92-7.03 75.05-9.85 76.2-14.25L76.2-14.25Q76.65-14.1 77.45-13.43 78.25-12.75 78.55-12.25L78.55-12.25Q77.75-8.1 74.95-4.3L74.95-4.3Q73.55-2.35 71.4-1.1L71.4-1.1Q68.95 0.35 65.87 0.35ZM67.95-23.75L67.8-22.25Q72.4-27.3 72.4-31.3L72.4-31.3Q72.4-33.7 70.59-33.7L70.59-33.7Q69.45-33.6 69.07-32.2 68.7-30.8 68.37-27.65 68.05-24.5 67.95-23.75L67.95-23.75ZM87.94 0.05L87.94 0.05Q90.69 4.9 90.69 8.08 90.69 11.25 88.77 13.23 86.84 15.2 83.74 15.2 80.64 15.2 78.67 13.48 76.69 11.75 76.69 8.7L76.69 8.7Q76.69 8.1 76.89 6.3L76.89 6.3 78.44-7.2Q75.49-11.15 73.59-13.5L73.59-13.5Q75.29-15.85 76.44-15.85L76.44-15.85Q76.99-15.85 77.47-15.3 77.94-14.75 79.09-13.25L79.09-13.25 80.99-30.05Q81.39-33.35 82.59-35.4L82.59-35.4Q84.19-38.05 88.49-38.05L88.49-38.05Q91.54-38.05 93.14-36.38 94.74-34.7 94.74-31.75L94.74-31.75Q94.74-27.8 92.17-23.95 89.59-20.1 86.19-17.2L86.19-17.2 84.94-5.15Q85.79-4.2 87.34-4.2L87.34-4.2Q90.44-4.2 92.52-6.83 94.59-9.45 96.14-14.25L96.14-14.25Q96.84-13.85 97.62-13.23 98.39-12.6 98.49-12.35L98.49-12.35Q97.34-6.8 94.49-3.75 91.64-0.7 87.94 0.05ZM90.29-33.7L90.29-33.7Q90.04-33.75 89.79-33.75L89.79-33.75Q88.44-33.75 87.99-32 87.54-30.25 86.89-23.95L86.89-23.95 86.69-22.05Q88.84-24.25 90.17-26.73 91.49-29.2 91.49-31.23 91.49-33.25 90.29-33.7ZM84.34 0.6L83.59 7.6Q83.54 7.85 83.54 8.68 83.54 9.5 84.04 10.05 84.54 10.6 85.37 10.6 86.19 10.6 86.84 9.93 87.49 9.25 87.49 7.85L87.49 7.85Q87.49 5.2 84.34 0.6L84.34 0.6ZM106.04-27.05L106.04-27.05Q106.04-31.8 110.24-34.93 114.44-38.05 121.34-38.05L121.34-38.05Q124.99-38.05 127.89-37.33 130.79-36.6 132.49-35.5 134.19-34.4 135.34-32.95L135.34-32.95Q137.24-30.45 137.21-27.38 137.19-24.3 134.79-21.9 132.39-19.5 128.99-19.4L128.99-19.4Q133.24-19.1 136.36-16.6 139.49-14.1 139.49-10.3L139.49-10.3Q139.49-5.3 135.64-2.5 131.79 0.3 126.26 0.3 120.74 0.3 118.74-1.15L118.74-1.15 120.29-5.35Q122.49-4.2 125.41-4.2 128.34-4.2 130.19-5.93 132.04-7.65 132.04-10.5 132.04-13.35 129.51-15.3 126.99-17.25 122.64-17.25L122.64-17.25 123.09-20.95Q126.09-20.95 128.16-22.38 130.24-23.8 130.31-26.65 130.39-29.5 127.74-31.45L127.74-31.45Q124.89-33.5 119.94-33.5L119.94-33.5Q116.69-33.5 113.59-31.83 110.49-30.15 110.49-27.35L110.49-27.35Q110.49-26 111.59-25.08 112.69-24.15 114.49-23.95L114.49-23.95 113.94-20.25Q110.14-20.4 108.09-22.4 106.04-24.4 106.04-27.05ZM120.34-9.6Q119.54-4.25 117.24-2.02 114.94 0.2 111.84 0.2 108.74 0.2 107.14-1.4 105.54-3 105.54-5.5L105.54-5.5Q105.54-11.4 114.49-15.55L114.49-15.55Q114.74-17.65 115.21-21.23 115.69-24.8 115.96-27 116.24-29.2 116.34-29.9L116.34-29.9Q118.39-31.2 121.09-31.2L121.09-31.2Q122.34-31.2 123.49-30.95L123.49-30.95 120.34-9.6ZM109.24-6.15L109.24-6.15Q109.24-4.35 110.94-4.35L110.94-4.35Q111.64-4.35 112.41-5.28 113.19-6.2 113.49-8.2L113.49-8.2 113.94-11.3Q109.24-8.65 109.24-6.15ZM163.24-23.55L163.24-23.55Q161.19-7.35 161.19-6.3L161.19-6.3Q161.19-4.3 162.64-4.3L162.64-4.3Q163.94-4.3 165.46-6.08 166.99-7.85 167.89-11.4L167.89-11.4Q169.54-9.6 169.89-8.6L169.89-8.6Q168.74-3.75 166.24-1.75 163.74 0.25 161.09 0.25L161.09 0.25Q156.74 0.25 155.24-3.1L155.24-3.1Q152.64 0.25 148.29 0.25L148.29 0.25Q144.69 0.25 142.74-1.55 140.79-3.35 140.79-6.25L140.79-6.25Q140.79-6.95 141.04-8.7L141.04-8.7Q142.19-18 142.79-23.5L142.79-23.5Q144.34-24.05 145.64-24.05 146.94-24.05 147.59-23.95 148.24-23.85 148.84-23.2 149.44-22.55 149.44-21.35L149.44-21.35 147.79-8.6Q147.69-8 147.69-7.5L147.69-7.5Q147.69-4.55 150.39-4.55L150.39-4.55Q152.89-4.55 154.54-7L154.54-7Q154.54-7.55 154.64-8.75L154.64-8.75 156.29-22.05Q156.64-22.9 157.79-23.48 158.94-24.05 160.66-24.05 162.39-24.05 163.24-23.55ZM185.38-36.05Q185.73-36.9 186.96-37.48 188.18-38.05 189.91-38.05 191.63-38.05 192.48-37.55L192.48-37.55Q191.98-33.65 190.88-25.3L190.88-25.3Q188.58-7.85 188.58-6.08 188.58-4.3 190.08-4.3L190.08-4.3Q191.38-4.3 192.78-5.93 194.18-7.55 195.33-11.25L195.33-11.25Q196.73-9.9 197.28-8.3L197.28-8.3Q195.48-2.35 191.63-0.6L191.63-0.6Q189.88 0.25 188.33 0.25L188.33 0.25Q183.88 0.25 182.38-2.95L182.38-2.95Q179.78 0.3 175.73 0.3 171.68 0.3 168.91-2.45 166.13-5.2 166.13-9.7L166.13-9.7Q166.13-16.25 169.98-20.15 173.83-24.05 179.73-24.05L179.73-24.05Q179.88-24.05 180.03-24.05L180.03-24.05Q182.08-24.05 183.88-23.45L183.88-23.45 185.38-36.05ZM180.48-20.15L180.48-20.15Q177.28-20.15 175.41-17.73 173.53-15.3 173.18-10.5L173.18-10.5Q173.13-10.05 173.13-9.65L173.13-9.65Q173.13-7.2 174.31-5.75 175.48-4.3 177.33-4.3L177.33-4.3Q180.48-4.3 182.08-8.75L182.08-8.75 183.38-19.5Q181.73-20.15 180.48-20.15ZM212.78-36.05Q213.13-36.9 214.36-37.48 215.58-38.05 217.31-38.05 219.03-38.05 219.88-37.55L219.88-37.55Q219.38-33.65 218.28-25.3L218.28-25.3Q215.98-7.85 215.98-6.08 215.98-4.3 217.48-4.3L217.48-4.3Q218.78-4.3 220.18-5.93 221.58-7.55 222.73-11.25L222.73-11.25Q224.13-9.9 224.68-8.3L224.68-8.3Q222.88-2.35 219.03-0.6L219.03-0.6Q217.28 0.25 215.73 0.25L215.73 0.25Q211.28 0.25 209.78-2.95L209.78-2.95Q207.18 0.3 203.13 0.3 199.08 0.3 196.31-2.45 193.53-5.2 193.53-9.7L193.53-9.7Q193.53-16.25 197.38-20.15 201.23-24.05 207.13-24.05L207.13-24.05Q207.28-24.05 207.43-24.05L207.43-24.05Q209.48-24.05 211.28-23.45L211.28-23.45 212.78-36.05ZM207.88-20.15L207.88-20.15Q204.68-20.15 202.81-17.73 200.93-15.3 200.58-10.5L200.58-10.5Q200.53-10.05 200.53-9.65L200.53-9.65Q200.53-7.2 201.71-5.75 202.88-4.3 204.73-4.3L204.73-4.3Q207.88-4.3 209.48-8.75L209.48-8.75 210.78-19.5Q209.13-20.15 207.88-20.15ZM224.88-36.83Q226.03-38 227.68-38 229.33-38 230.5-36.83 231.68-35.65 231.68-34 231.68-32.35 230.5-31.2 229.33-30.05 227.68-30.05 226.03-30.05 224.88-31.2 223.73-32.35 223.73-34 223.73-35.65 224.88-36.83ZM222.83-22.15Q223.33-23.05 224.73-23.53 226.13-24 227.5-24 228.88-24 229.93-23.65L229.93-23.65Q227.98-8.6 227.98-8.45L227.98-8.45Q227.73-7.45 227.73-6.78 227.73-6.1 227.83-5.6L227.83-5.6Q228.03-4.3 229.65-4.3 231.28-4.3 232.65-6.43 234.03-8.55 234.73-11.25L234.73-11.25Q235.08-11.05 235.83-10.05 236.58-9.05 236.73-8.55L236.73-8.55Q235.73-4.55 233.33-2.1L233.33-2.1Q230.93 0.35 227.58 0.35 224.23 0.35 222.6-1.3 220.98-2.95 220.98-5.55L220.98-5.55Q220.98-6.1 221.03-6.7L221.03-6.7 222.83-22.15ZM241.93-11.2Q245.03-11.85 246.55-13.7 248.08-15.55 248.08-17.28 248.08-19 247.15-19.63 246.23-20.25 245.13-20.25L245.13-20.25Q242.78-20.25 241-17.63 239.23-15 239.23-11.38 239.23-7.75 240.95-5.98 242.68-4.2 245.23-4.2L245.23-4.2Q248.98-4.2 252.43-6.8 255.88-9.4 258.03-13.6L258.03-13.6Q259.13-12.55 260.03-11L260.03-11Q258.38-7.25 254.18-3.65L254.18-3.65Q252.08-1.9 249.2-0.8 246.33 0.3 243.28 0.3L243.28 0.3Q238.28 0.3 235.38-2.75L235.38-2.75Q232.28-6.05 232.28-11.2 232.28-16.35 236.15-20.2 240.03-24.05 245.43-24.05L245.43-24.05Q249.28-24.05 251.68-22.38 254.08-20.7 254.13-17.85L254.13-17.85Q254.13-14 251.05-11.6 247.98-9.2 242.63-8.25L242.63-8.25 241.93-11.2ZM276.77-15.3L276.77-15.3Q280.72-12.4 280.72-8.45 280.72-4.5 277.62-2.1 274.52 0.3 269.82 0.3L269.82 0.3Q266.77 0.3 264.75-1.23 262.72-2.75 262.72-5 262.72-7.25 264.22-8.58 265.72-9.9 267.97-10.2L267.97-10.2Q266.92-8.7 266.92-7.33 266.92-5.95 267.87-5.1L267.87-5.1Q268.82-4.25 270.27-4.25 271.72-4.25 272.67-5.33 273.62-6.4 273.62-7.8L273.62-7.8Q273.62-10.1 271.47-11.9L271.47-11.9Q270.17-12.95 268.67-13.88 267.17-14.8 267.07-14.85L267.07-14.85Q266.87-15 266.67-15.1L266.67-15.1Q265.77-14.05 264.07-12.23 262.37-10.4 261.37-9.3L261.37-9.3Q258.57-6.25 258.22-4.2L258.22-4.2Q258.12-3.8 258.12-2.68 258.12-1.55 258.8-0.35 259.47 0.85 260.42 1.45 261.37 2.05 262.3 2.43 263.22 2.8 263.9 2.95 264.57 3.1 264.57 3.15L264.57 3.15Q264.57 3.5 263.47 3.95L263.47 3.95Q261.42 4.7 259.2 4.7 256.97 4.7 254.87 3.1L254.87 3.1Q252.02 0.9 252.02-2.75L252.02-2.75Q252.02-5 253.17-7.2L253.17-7.2Q255.22-11.1 262.77-17.9L262.77-17.9Q260.92-19.75 260.92-21.85 260.92-23.95 262.5-25.4 264.07-26.85 266.22-26.85L266.22-26.85Q268.17-26.85 269.62-25.3L269.62-25.3Q270.57-24.25 270.57-22.65 270.57-21.05 269.52-19.05L269.52-19.05Q274.87-16.65 276.77-15.3ZM265.92-20.95L265.92-20.95Q267.12-22.2 267.12-22.75L267.12-22.75Q267.12-24 266.02-24.1L266.02-24.1Q264.77-24.1 264.77-22.7L264.77-22.7Q264.77-21.85 265.92-20.95Z" opacity="1" transform="matrix(1,0,0,1,0,0)" fill="#0f2615" class="undefined-text-0" data-fill-palette-color="quaternary" id="text-0"></path></svg></g></svg></g></svg></g></svg></g><g transform="matrix(1,0,0,1,69.09022821604276,0)"><svg viewBox="0 0 66.6195435679145 53.96183029001075" height="53.96183029001075" width="66.6195435679145"><g><svg version="1.1" xmlns="http://www.w3.org/2000/svg" xmlns:xlink="http://www.w3.org/1999/xlink" x="0" y="0" viewBox="0 0 100 81" enable-background="new 0 0 100 81" xml:space="preserve" height="53.96183029001075" width="66.6195435679145" class="icon-icon-0" data-fill-palette-color="quaternary" id="icon-0"><path d="M53 30c-17.484 0-17.047 25.468-39 26.929V20l25-9L14 2c0-1.104-0.896-2-2-2-1.105 0-2 0.896-2 2v55.181C4.334 58.137 0 63.066 0 69c0 6.617 5.383 12 12 12 0 0 0 0 0.001 0C77 81 100 72 100 55 100 41.572 76 30 53 30zM12 77c-4.411 0-8-3.589-8-8 0-3.72 2.555-6.846 6-7.736V69c0 1.104 0.895 2 2 2 1.104 0 2-0.896 2-2v-7.736c3.445 0.891 6 4.017 6 7.736C20 73.411 16.411 77 12 77z" fill="#0f2615" data-fill-palette-color="quaternary"></path></svg></g></svg></g><g></g></svg></g></svg></g></svg></g></svg></g></svg><rect width="512" height="320" fill="none" stroke="none" visibility="hidden"></rect></g></svg></g></svg>