<svg xmlns="http://www.w3.org/2000/svg" version="1.1" xmlns:xlink="http://www.w3.org/1999/xlink" xmlns:svgjs="http://svgjs.dev/svgjs" width="1000" height="625" viewBox="0 0 1000 625"><g transform="matrix(1,0,0,1,0,0)"><svg viewBox="0 0 512 320" data-background-color="#ebebeb" preserveAspectRatio="xMidYMid meet" height="625" width="1000" xmlns="http://www.w3.org/2000/svg" xmlns:xlink="http://www.w3.org/1999/xlink"><defs></defs><g id="tight-bounds" transform="matrix(1,0,0,1,0,0)"><svg viewBox="0 0 512 320" height="320" width="512"><g><svg></svg></g><g><svg viewBox="0 0 512 320" height="320" width="512"><g><path d="M96 160c0-88.366 71.634-160 160-160 88.366 0 160 71.634 160 160 0 88.366-71.634 160-160 160-88.366 0-160-71.634-160-160zM256 316.219c86.277 0 156.219-69.942 156.219-156.219 0-86.277-69.942-156.219-156.219-156.219-86.277 0-156.219 69.942-156.219 156.219 0 86.277 69.942 156.219 156.219 156.219z" fill="#0f2615" data-fill-palette-color="tertiary"></path></g><g transform="matrix(1,0,0,1,128,132.55914025134663)"><svg viewBox="0 0 256 54.88171949730673" height="54.88171949730673" width="256"><g><svg viewBox="0 0 345.2196638704423 74.00878420895363" height="54.88171949730673" width="256"><g transform="matrix(1,0,0,1,89.21966387044229,22.86978855043678)"><svg viewBox="0 0 255.99999999999997 28.26920710808007" height="28.26920710808007" width="255.99999999999997"><g><svg viewBox="0 0 255.99999999999997 28.26920710808007" height="28.26920710808007" width="255.99999999999997"><g><svg viewBox="0 0 255.99999999999997 28.26920710808007" height="28.26920710808007" width="255.99999999999997"><g transform="matrix(1,0,0,1,0,0)"><svg width="255.99999999999997" viewBox="1.75 -35.400001525878906 325.0728759765625 35.900001525878906" height="28.26920710808007" data-palette-color="#0f2615"><path d="M28.7-2L28.7-2 28.7-14.9 19.4-14.9 19.4-14.2 28-14.2 28-2.45Q26.1-1.35 23.95-0.78 21.8-0.2 19.45-0.2L19.45-0.2Q15.95-0.2 12.85-1.55 9.75-2.9 7.45-5.25L7.45-5.25Q5.15-7.55 3.8-10.65 2.45-13.75 2.45-17.3L2.45-17.3Q2.45-20.85 3.8-24 5.15-27.15 7.5-29.5L7.5-29.5Q9.8-31.85 12.93-33.23 16.05-34.6 19.6-34.6L19.6-34.6Q22-34.6 24.23-33.98 26.45-33.35 28.35-32.2L28.35-32.2 28.75-32.8Q26.7-34 24.43-34.65 22.15-35.3 19.6-35.3L19.6-35.3Q15.9-35.3 12.65-33.88 9.4-32.45 7-30.05L7-30.05Q4.55-27.6 3.15-24.33 1.75-21.05 1.75-17.35L1.75-17.35Q1.75-13.65 3.15-10.4 4.55-7.15 7-4.75L7-4.75Q9.4-2.3 12.65-0.9 15.9 0.5 19.6 0.5L19.6 0.5Q22.15 0.5 24.43-0.18 26.7-0.85 28.7-2ZM62.75-4.85L62.75-4.85Q65.15-7.25 66.57-10.5 68-13.75 68-17.45L68-17.45Q68-21.15 66.57-24.43 65.15-27.7 62.75-30.15L62.75-30.15Q60.3-32.55 57.02-33.98 53.75-35.4 50.05-35.4L50.05-35.4Q46.35-35.4 43.1-33.98 39.85-32.55 37.45-30.15L37.45-30.15Q35-27.7 33.6-24.43 32.2-21.15 32.2-17.45L32.2-17.45Q32.2-13.75 33.6-10.5 35-7.25 37.45-4.85L37.45-4.85Q39.85-2.4 43.1-1 46.35 0.4 50.05 0.4L50.05 0.4Q53.75 0.4 57.02-1 60.3-2.4 62.75-4.85ZM37.9-5.35L37.9-5.35Q35.6-7.65 34.25-10.75 32.9-13.85 32.9-17.4L32.9-17.4Q32.9-20.95 34.25-24.1 35.6-27.25 37.95-29.6L37.95-29.6Q40.25-31.95 43.37-33.33 46.5-34.7 50.05-34.7L50.05-34.7Q53.6-34.7 56.72-33.33 59.85-31.95 62.2-29.6L62.2-29.6Q64.55-27.25 65.92-24.13 67.3-21 67.3-17.45L67.3-17.45Q67.3-13.9 65.92-10.78 64.55-7.65 62.2-5.35L62.2-5.35Q59.8-3 56.62-1.65 53.45-0.3 49.9-0.3L49.9-0.3Q46.4-0.3 43.3-1.65 40.2-3 37.9-5.35ZM71.5 0L96.3 0 96.3-7.7 95.59-7.7 95.59-0.7 76.05-0.7 76.05-34.3 80.2-34.3 80.2-35 71.5-35 71.5-34.3 75.34-34.3 75.34-0.7 71.5-0.7 71.5 0ZM99.79 0L108.49 0 108.49-0.7 104.59-0.7 104.59-17.3 122.19-17.3 122.19-18 104.59-18 104.59-34.3 123.44-34.3 123.44-27.3 124.14-27.3 124.14-35 99.79-35 99.79-34.3 103.89-34.3 103.89-0.7 99.79-0.7 99.79 0ZM142.64 0L154.34 0Q156.39 0 158.29-0.58 160.19-1.15 161.69-2.3L161.69-2.3Q163.14-3.4 164.04-5.08 164.94-6.75 164.94-9L164.94-9Q164.94-10.8 164.31-12.25 163.69-13.7 162.64-14.8L162.64-14.8Q161.54-15.9 160.14-16.6 158.74-17.3 157.24-17.6L157.24-17.6Q160.49-18.45 162.04-20.8 163.59-23.15 163.59-26.25L163.59-26.25Q163.59-28.55 162.86-30.23 162.14-31.9 160.79-32.95L160.79-32.95Q159.44-34 157.56-34.5 155.69-35 153.44-35L153.44-35 142.64-35 142.64-34.3 146.19-34.3 146.19-0.7 142.64-0.7 142.64 0ZM146.89-0.7L146.89-17.2 153.34-17.2Q155.44-17.2 157.39-16.7 159.34-16.2 160.89-15.2L160.89-15.2Q162.39-14.2 163.31-12.6 164.24-11 164.24-8.85L164.24-8.85Q164.24-6.8 163.44-5.28 162.64-3.75 161.29-2.75L161.29-2.75Q159.94-1.7 158.11-1.2 156.29-0.7 154.29-0.7L154.29-0.7 146.89-0.7ZM146.89-17.9L146.89-34.3 154.04-34.3Q155.99-34.3 157.61-33.85 159.24-33.4 160.44-32.45L160.44-32.45Q161.59-31.5 162.24-30 162.89-28.5 162.89-26.4L162.89-26.4Q162.89-22.6 160.56-20.25 158.24-17.9 154.24-17.9L154.24-17.9 146.89-17.9ZM191.54-2.6L191.54-2.6Q193.04-4.05 193.91-6.25 194.79-8.45 194.79-11.3L194.79-11.3 194.79-34.3 198.64-34.3 198.64-35 189.94-35 189.94-34.3 194.09-34.3 194.09-11.45Q194.09-8.75 193.29-6.68 192.49-4.6 191.09-3.2L191.09-3.2Q189.69-1.75 187.74-1.03 185.79-0.3 183.54-0.3L183.54-0.3Q181.24-0.3 179.29-1.03 177.34-1.75 175.94-3.2L175.94-3.2Q174.54-4.6 173.76-6.68 172.99-8.75 172.99-11.45L172.99-11.45 172.99-34.3 177.14-34.3 177.14-35 168.44-35 168.44-34.3 172.29-34.3 172.29-11.3Q172.29-8.45 173.14-6.25 173.99-4.05 175.49-2.6L175.49-2.6Q176.99-1.1 179.06-0.35 181.14 0.4 183.54 0.4L183.54 0.4Q185.94 0.4 187.99-0.35 190.04-1.1 191.54-2.6ZM202.13 0L210.93 0Q216.23 0 219.91-1.63 223.58-3.25 225.88-5.8L225.88-5.8Q228.18-8.35 229.21-11.45 230.23-14.55 230.23-17.5L230.23-17.5Q230.23-21.5 228.83-24.75 227.43-28 225.03-30.3L225.03-30.3Q222.63-32.55 219.43-33.77 216.23-35 212.63-35L212.63-35 202.13-35 202.13-34.3 205.78-34.3 205.78-0.7 202.13-0.7 202.13 0ZM206.48-0.7L206.48-34.3 212.93-34.3Q216.28-34.3 219.31-33.13 222.33-31.95 224.63-29.8L224.63-29.8Q226.93-27.6 228.26-24.48 229.58-21.35 229.58-17.5L229.58-17.5Q229.58-14.65 228.61-11.68 227.63-8.7 225.48-6.3L225.48-6.3Q223.28-3.85 219.81-2.27 216.33-0.7 211.38-0.7L211.38-0.7 206.48-0.7ZM233.73 0L242.53 0Q247.83 0 251.51-1.63 255.18-3.25 257.48-5.8L257.48-5.8Q259.78-8.35 260.81-11.45 261.83-14.55 261.83-17.5L261.83-17.5Q261.83-21.5 260.43-24.75 259.03-28 256.63-30.3L256.63-30.3Q254.23-32.55 251.03-33.77 247.83-35 244.23-35L244.23-35 233.73-35 233.73-34.3 237.38-34.3 237.38-0.7 233.73-0.7 233.73 0ZM238.08-0.7L238.08-34.3 244.53-34.3Q247.88-34.3 250.91-33.13 253.93-31.95 256.23-29.8L256.23-29.8Q258.53-27.6 259.86-24.48 261.18-21.35 261.18-17.5L261.18-17.5Q261.18-14.65 260.21-11.68 259.23-8.7 257.08-6.3L257.08-6.3Q254.88-3.85 251.41-2.27 247.93-0.7 242.98-0.7L242.98-0.7 238.08-0.7ZM265.33 0L274.03 0 274.03-0.7 269.88-0.7 269.88-34.3 274.03-34.3 274.03-35 265.33-35 265.33-34.3 269.18-34.3 269.18-0.7 265.33-0.7 265.33 0ZM277.53 0L302.58 0 302.58-7.7 301.88-7.7 301.88-0.7 282.33-0.7 282.33-17.3 299.93-17.3 299.93-18 282.33-18 282.33-34.3 301.18-34.3 301.18-27.3 301.88-27.3 301.88-35 277.53-35 277.53-34.3 281.63-34.3 281.63-0.7 277.53-0.7 277.53 0ZM323.77-2.25L323.77-2.25Q325.22-3.5 326.05-5.3 326.87-7.1 326.82-9.3L326.82-9.3Q326.77-12.55 325.37-14.35 323.97-16.15 321.92-17.2L321.92-17.2Q319.82-18.2 317.45-18.75 315.07-19.3 313.07-20.15L313.07-20.15Q311.02-20.95 309.67-22.38 308.32-23.8 308.32-26.5L308.32-26.5Q308.32-28.05 308.8-29.48 309.27-30.9 310.27-32.05L310.27-32.05Q311.22-33.15 312.7-33.83 314.17-34.5 316.12-34.5L316.12-34.5Q318.52-34.5 320.22-33.95 321.92-33.4 322.92-32.65L322.92-32.65 322.92-27.3 323.62-27.3 323.62-33Q322.82-33.65 321.87-34.1 320.92-34.55 319.97-34.8L319.97-34.8Q318.97-35 318-35.1 317.02-35.2 316.22-35.2L316.22-35.2Q313.87-35.2 312.22-34.38 310.57-33.55 309.52-32.2L309.52-32.2Q308.47-30.85 308-29.18 307.52-27.5 307.62-25.85L307.62-25.85Q307.72-23.8 308.6-22.5 309.47-21.2 310.82-20.4L310.82-20.4Q312.12-19.55 313.77-19.03 315.42-18.5 317.12-18.05L317.12-18.05Q318.82-17.55 320.45-16.98 322.07-16.4 323.32-15.45L323.32-15.45Q324.57-14.45 325.35-12.93 326.12-11.4 326.12-9.1L326.12-9.1Q326.12-7.1 325.27-5.48 324.42-3.85 323.07-2.7L323.07-2.7Q321.67-1.55 319.87-0.93 318.07-0.3 316.12-0.3L316.12-0.3Q313.02-0.3 310.9-1.28 308.77-2.25 307.32-3.7L307.32-3.7 307.32-8.2 306.62-8.2 306.62-3.2Q307.07-2.75 307.9-2.15 308.72-1.55 309.92-1L309.92-1Q311.07-0.4 312.65 0 314.22 0.4 316.22 0.4L316.22 0.4Q318.42 0.4 320.37-0.28 322.32-0.95 323.77-2.25Z" opacity="1" transform="matrix(1,0,0,1,0,0)" fill="#0f2615" class="undefined-text-0" data-fill-palette-color="primary" id="text-0"></path></svg></g></svg></g></svg></g></svg></g><g><svg viewBox="0 0 82.54598253319517 74.00878420895363" height="74.00878420895363" width="82.54598253319517"><g><svg xmlns="http://www.w3.org/2000/svg" viewBox="-346 266.4170227050781 99.91950988769531 89.58547973632812" xml:space="preserve" width="82.54598253319517" height="74.00878420895363" x="0" y="0" class="icon-icon-0" data-fill-palette-color="accent" id="icon-0"><circle cx="-296.002" cy="273.726" r="7.3" fill="#0f2615" data-fill-palette-color="accent"></circle><circle cx="-268.652" cy="273.726" r="7.3" fill="#0f2615" data-fill-palette-color="accent"></circle><path d="M-341.76 292.038c0-1.976 0.4-3.782 1.118-5.342h-1.262c-2.261 0-4.096 1.833-4.096 4.096s1.835 4.099 4.096 4.099h0.144v-2.853z" fill="#0f2615" data-fill-palette-color="accent"></path><circle cx="-323.432" cy="273.726" r="7.3" fill="#0f2615" data-fill-palette-color="accent"></circle><path d="M-332.508 351.904a4.099 4.099 0 0 0 8.197 0l0.004-34.378h1.824l-0.012 34.378a4.097 4.097 0 0 0 8.195 0l0.018-59.268h1.799v21.841c0 4.393 5.731 4.393 5.719 0V292.17c0-4.855-2.854-9.612-8.533-9.612l-16.383-0.006c-5.175 0-8.418 4.22-8.418 9.485v22.44c0 4.362 5.764 4.362 5.764 0v-21.841h1.835l-0.009 59.268z" fill="#0f2615" data-fill-palette-color="accent"></path><circle cx="-323.432" cy="273.726" r="7.3" fill="#0f2615" data-fill-palette-color="accent"></circle><path d="M-332.508 351.904a4.099 4.099 0 0 0 8.197 0l0.004-34.378h1.824l-0.012 34.378a4.097 4.097 0 0 0 8.195 0l0.018-59.268h1.799v21.841c0 4.393 5.731 4.393 5.719 0V292.17c0-4.855-2.854-9.612-8.533-9.612l-16.383-0.006c-5.175 0-8.418 4.22-8.418 9.485v22.44c0 4.362 5.764 4.362 5.764 0v-21.841h1.835l-0.009 59.268z" fill="#0f2615" data-fill-palette-color="accent"></path><path d="M-332.508 351.904a4.099 4.099 0 0 0 8.197 0l0.004-34.378h1.824l-0.012 34.378a4.097 4.097 0 0 0 8.195 0l0.018-59.268h1.799v21.841c0 4.393 5.731 4.393 5.719 0V292.17c0-4.855-2.854-9.612-8.533-9.612l-16.383-0.006c-5.175 0-8.418 4.22-8.418 9.485v22.44c0 4.362 5.764 4.362 5.764 0v-21.841h1.835l-0.009 59.268zM-250.323 292.038c0-1.976-0.398-3.782-1.118-5.342h1.263a4.097 4.097 0 0 1 0 8.195h-0.145v-2.853z" fill="#0f2615" data-fill-palette-color="accent"></path><path d="M-287.832 282.553l-8.209 0.003-8.21-0.003c-1.576 0-2.971 0.395-4.152 1.089 2.182 2.175 3.302 5.362 3.302 8.529v0.466h0.032l-0.009 59.268a4.097 4.097 0 0 0 8.195 0l0.006-34.378h1.67l0.006 34.378a4.099 4.099 0 0 0 8.196 0l-0.01-59.268h0.033v-0.466c0-3.167 1.121-6.354 3.302-8.529-1.18-0.694-2.576-1.089-4.152-1.089z" fill="#0f2615" data-fill-palette-color="accent"></path><path d="M-259.574 351.904a4.1 4.1 0 0 1-8.199 0l-0.003-34.378h-1.824l0.012 34.378a4.097 4.097 0 0 1-8.196 0l-0.018-59.268h-1.8v21.841c0 4.393-5.731 4.393-5.72 0V292.17c0-4.855 2.854-9.612 8.535-9.612l16.381-0.006c5.177 0 8.42 4.22 8.42 9.485v22.44c0 4.362-5.764 4.362-5.764 0v-21.841h-1.836l0.012 59.268z" fill="#0f2615" data-fill-palette-color="accent"></path><path d="M-259.574 351.904a4.1 4.1 0 0 1-8.199 0l-0.003-34.378h-1.824l0.012 34.378a4.097 4.097 0 0 1-8.196 0l-0.018-59.268h-1.8v21.841c0 4.393-5.731 4.393-5.72 0V292.17c0-4.855 2.854-9.612 8.535-9.612l16.381-0.006c5.177 0 8.42 4.22 8.42 9.485v22.44c0 4.362-5.764 4.362-5.764 0v-21.841h-1.836l0.012 59.268z" fill="#0f2615" data-fill-palette-color="accent"></path><path d="M-259.574 351.904a4.1 4.1 0 0 1-8.199 0l-0.003-34.378h-1.824l0.012 34.378a4.097 4.097 0 0 1-8.196 0l-0.018-59.268h-1.8v21.841c0 4.393-5.731 4.393-5.72 0V292.17c0-4.855 2.854-9.612 8.535-9.612l16.381-0.006c5.177 0 8.42 4.22 8.42 9.485v22.44c0 4.362-5.764 4.362-5.764 0v-21.841h-1.836l0.012 59.268z" fill="#0f2615" data-fill-palette-color="accent"></path></svg></g></svg></g></svg></g></svg></g></svg></g></svg><rect width="512" height="320" fill="none" stroke="none" visibility="hidden"></rect></g></svg></g></svg>